<svg width="1090" height="539" viewBox="0 0 1090 539" fill="none" xmlns="http://www.w3.org/2000/svg">
<path d="M436.121 394.486H435.645L435.622 394.962L432.697 455.094L432.697 455.101C432.627 457.091 431.714 459.004 430.107 460.474C428.497 461.945 426.306 462.864 423.945 463.041L423.944 463.041L362.276 467.758L362.273 467.758C360.879 467.872 359.474 467.722 358.156 467.321C356.837 466.92 355.641 466.277 354.648 465.442C353.654 464.606 352.889 463.599 352.398 462.493C351.908 461.388 351.703 460.207 351.795 459.031L351.795 459.022L355.549 396.7L355.582 396.16L355.04 396.17L270.264 397.855L270.263 397.855C268.837 397.885 267.421 397.641 266.121 397.143C264.82 396.645 263.668 395.906 262.747 394.984C261.825 394.063 261.157 392.982 260.784 391.822C260.41 390.662 260.34 389.447 260.575 388.262L260.576 388.26L284.024 268.164L284.025 268.163C284.385 266.29 285.495 264.569 287.186 263.306C288.876 262.043 291.034 261.324 293.288 261.283H341.299C342.698 261.305 344.073 261.59 345.329 262.115C346.585 262.64 347.689 263.393 348.566 264.317C349.442 265.241 350.071 266.313 350.414 267.457C350.757 268.601 350.808 269.794 350.563 270.955L350.562 270.959L333.159 356.735L333.034 357.351L333.662 357.335L357.647 356.703L358.106 356.691L358.133 356.232L364.568 245.569L364.568 245.569L364.568 245.559C364.651 243.453 365.678 241.439 367.463 239.95C369.249 238.459 371.65 237.617 374.16 237.618H374.16L432.66 237.618L432.66 237.618C433.965 237.617 435.256 237.844 436.453 238.285C437.65 238.726 438.727 239.37 439.621 240.175C440.514 240.98 441.204 241.929 441.655 242.961C442.105 243.994 442.307 245.091 442.252 246.188L442.252 246.191L437.377 353.696L437.353 354.219H437.876H441.435H441.447L441.458 354.218C442.743 354.159 444.027 354.321 445.235 354.696C446.443 355.07 447.549 355.647 448.488 356.392C449.427 357.136 450.18 358.03 450.706 359.021C451.231 360.008 451.521 361.071 451.563 362.15L451.562 386.185L451.563 386.191C451.587 388.324 450.639 390.397 448.895 391.957C447.149 393.517 444.749 394.432 442.21 394.486H436.121Z" fill="url(#paint0_linear_13_23)" stroke="white"/>
<path d="M826.121 213.416H825.645L825.622 213.891L822.697 274.024L822.697 274.03C822.627 276.02 821.714 277.934 820.107 279.404C818.497 280.875 816.306 281.794 813.945 281.971L813.944 281.971L752.276 286.687L752.273 286.688C750.879 286.801 749.474 286.652 748.156 286.251C746.837 285.849 745.641 285.207 744.647 284.371C743.654 283.536 742.888 282.529 742.398 281.423C741.908 280.318 741.703 279.137 741.795 277.961L741.795 277.952L745.549 215.504L745.582 214.963L745.04 214.974L660.264 216.616L660.263 216.616C658.837 216.646 657.421 216.402 656.121 215.904C654.82 215.406 653.668 214.667 652.747 213.746C651.825 212.824 651.157 211.743 650.784 210.583C650.41 209.423 650.34 208.208 650.575 207.023L650.576 207.021L674.024 86.9675L674.025 86.9662C674.385 85.0938 675.495 83.3726 677.186 82.1096C678.876 80.8467 681.034 80.1271 683.288 80.0867H731.299C732.698 80.1086 734.073 80.3929 735.329 80.918C736.585 81.4435 737.689 82.1965 738.566 83.1205C739.442 84.0442 740.071 85.1163 740.414 86.2606C740.757 87.4044 740.808 88.5973 740.563 89.7584L740.562 89.7622L723.159 175.665L723.034 176.281L723.662 176.264L747.647 175.633L748.106 175.621L748.133 175.162L754.568 64.4985L754.568 64.4985L754.568 64.4891C754.651 62.3829 755.678 60.3689 757.463 58.8794C759.249 57.3884 761.65 56.5464 764.16 56.5476H764.16L822.66 56.5476L822.66 56.5476C823.965 56.5465 825.256 56.7739 826.453 57.2147C827.65 57.6554 828.727 58.2994 829.621 59.1046C830.514 59.9096 831.204 60.8582 831.654 61.8909C832.105 62.9233 832.307 64.0207 832.252 65.1181L832.252 65.1206L827.377 172.457L827.353 172.98H827.876H831.435H831.447L831.458 172.979C832.758 172.92 834.057 173.087 835.277 173.472C836.498 173.856 837.611 174.448 838.553 175.209C839.494 175.969 840.243 176.883 840.758 177.891C841.273 178.898 841.545 179.981 841.562 181.075L841.562 205.115L841.563 205.121C841.587 207.254 840.639 209.327 838.895 210.886C837.149 212.447 834.749 213.362 832.21 213.416H826.121Z" fill="url(#paint1_linear_13_23)" stroke="white"/>
<path d="M609.671 230.086L613.035 232.107C627.081 241.04 636.918 254.056 640.734 268.757C644.55 283.459 642.089 298.857 633.802 312.115C626.549 323.796 614.22 332.51 599.528 336.34C584.837 340.17 568.985 338.802 555.461 332.538C544.641 327.522 536.57 318.999 533.023 308.844C529.476 298.689 530.743 287.733 536.546 278.385C538.844 274.68 541.964 271.401 545.729 268.738C549.494 266.074 553.829 264.077 558.487 262.861C563.146 261.645 568.036 261.233 572.878 261.65C577.721 262.067 582.421 263.303 586.71 265.289C593.632 268.502 598.793 273.957 601.06 280.455C603.328 286.954 602.514 293.964 598.8 299.945C597.335 302.319 595.343 304.419 592.938 306.128C590.533 307.836 587.761 309.117 584.782 309.9C581.803 310.682 578.675 310.949 575.576 310.686C572.477 310.423 569.468 309.635 566.722 308.367C564.526 307.351 562.582 305.97 561.003 304.304C559.425 302.638 558.241 300.72 557.521 298.659C556.802 296.598 556.559 294.435 556.808 292.293C557.057 290.151 557.792 288.072 558.971 286.175C560.872 283.116 564.102 280.834 567.951 279.831C571.8 278.828 575.952 279.186 579.495 280.828C582.316 282.154 584.413 284.393 585.327 287.053C586.24 289.713 585.896 292.577 584.37 295.018C583.142 296.973 581.069 298.428 578.603 299.067C576.137 299.706 573.478 299.477 571.208 298.429C570.306 298.014 569.508 297.448 568.86 296.766C568.212 296.083 567.727 295.296 567.433 294.451C567.138 293.605 567.04 292.718 567.144 291.84C567.248 290.962 567.552 290.11 568.039 289.334C568.401 288.701 568.905 288.137 569.521 287.674C570.137 287.211 570.854 286.858 571.628 286.635C572.403 286.411 573.222 286.323 574.036 286.374C574.851 286.426 575.646 286.616 576.375 286.933C576.961 287.19 577.48 287.547 577.902 287.981C578.325 288.416 578.641 288.919 578.832 289.462C579.023 290.005 579.086 290.575 579.015 291.139C578.945 291.703 578.743 292.249 578.422 292.744" stroke="#00ADFE" stroke-width="4" stroke-miterlimit="10" stroke-linecap="round"/>
<path d="M513 383.195C491.544 369.138 476.603 348.926 470.865 326.199C465.128 303.472 468.971 279.723 481.702 259.225C491.551 243.386 507.424 230.966 526.643 224.062C545.862 217.158 567.25 216.192 587.197 221.327" stroke="#00ADFE" stroke-width="3" stroke-miterlimit="10" stroke-linecap="round"/>
<path d="M624.54 403.155C603.424 407.1 581.54 406.798 560.58 402.271" stroke="#00ADFE" stroke-width="3" stroke-miterlimit="10" stroke-linecap="round" stroke-dasharray="0.09 8.71"/>
<path d="M719.31 341.549C710.91 355.106 699.612 367.166 686.014 377.089" stroke="#00ADFE" stroke-width="3" stroke-miterlimit="10" stroke-linecap="round"/>
<path d="M544.785 358.267C527.895 350.43 515.296 337.124 509.757 321.269C504.218 305.415 506.191 288.31 515.242 273.711C522.496 262.03 534.825 253.315 549.517 249.485C564.208 245.655 580.06 247.023 593.584 253.288C604.391 258.304 612.452 266.819 615.999 276.964C619.545 287.109 618.286 298.054 612.499 307.398C607.85 314.875 599.953 320.45 590.546 322.898C581.139 325.346 570.991 324.466 562.335 320.452C555.413 317.24 550.252 311.785 547.985 305.286C545.717 298.788 546.531 291.777 550.245 285.796C551.71 283.423 553.702 281.322 556.107 279.614C558.512 277.906 561.284 276.624 564.263 275.842C567.242 275.06 570.37 274.792 573.469 275.055C576.568 275.318 579.576 276.106 582.322 277.374C584.519 278.391 586.463 279.772 588.042 281.437C589.62 283.103 590.804 285.021 591.524 287.082C592.243 289.143 592.486 291.307 592.237 293.449C591.988 295.591 591.253 297.67 590.074 299.566C588.173 302.626 584.943 304.908 581.094 305.911C577.245 306.913 573.093 306.555 569.55 304.914C566.729 303.587 564.632 301.348 563.718 298.688C562.805 296.029 563.149 293.164 564.675 290.723C565.903 288.769 567.976 287.313 570.442 286.674C572.908 286.035 575.567 286.265 577.838 287.312C578.739 287.728 579.537 288.293 580.185 288.976C580.833 289.659 581.318 290.445 581.612 291.291C581.907 292.136 582.005 293.023 581.901 293.902C581.797 294.78 581.493 295.632 581.006 296.408C580.622 297.033 580.099 297.586 579.466 298.035C578.833 298.484 578.103 298.82 577.319 299.024C576.534 299.228 575.711 299.295 574.896 299.222C574.081 299.148 573.292 298.936 572.572 298.598C571.987 298.341 571.467 297.984 571.045 297.55C570.623 297.115 570.307 296.612 570.115 296.069C569.924 295.526 569.862 294.956 569.932 294.391C570.003 293.827 570.204 293.282 570.525 292.786" stroke="#00ADFE" stroke-width="4" stroke-miterlimit="10" stroke-linecap="round"/>
<path d="M537.375 180.523C566.174 177.523 595.342 182.289 620.884 194.166C633.977 200.214 645.563 208.432 654.977 218.35C664.392 228.268 671.452 239.691 675.753 251.967C680.054 264.242 681.512 277.13 680.044 289.893C678.576 302.655 674.21 315.043 667.196 326.348C658.333 340.627 644.549 352.173 627.753 359.385C610.957 366.598 591.98 369.121 573.45 366.604" stroke="#00ADFE" stroke-width="3" stroke-miterlimit="10" stroke-linecap="round"/>
<path d="M474 201.325C480.086 197.697 486.492 194.486 493.159 191.724" stroke="#00ADFE" stroke-width="4" stroke-miterlimit="10" stroke-linecap="round" stroke-dasharray="0.09 8.92"/>
<path d="M573.547 323.947C593.956 323.947 610.5 309.94 610.5 292.66C610.5 275.381 593.956 261.373 573.547 261.373C553.139 261.373 536.595 275.381 536.595 292.66C536.595 309.94 553.139 323.947 573.547 323.947Z" fill="white" stroke="#393C54" stroke-width="6" stroke-linecap="round" stroke-linejoin="round"/>
<path d="M509.198 250.551C519.967 250.551 528.698 243.01 528.698 233.707C528.698 224.404 519.967 216.863 509.198 216.863C498.428 216.863 489.698 224.404 489.698 233.707C489.698 243.01 498.428 250.551 509.198 250.551Z" fill="#F8DC25"/>
<path d="M433.245 342.476L435.536 337.422C435.675 337.1 435.924 336.822 436.251 336.626C436.578 336.429 436.966 336.324 437.364 336.324C437.762 336.324 438.151 336.429 438.478 336.626C438.805 336.822 439.054 337.1 439.193 337.422L441.484 342.476C442.374 344.372 443.695 346.094 445.37 347.541C447.045 348.987 449.039 350.129 451.234 350.897L457.084 352.877C457.457 352.996 457.779 353.212 458.006 353.494C458.233 353.776 458.355 354.112 458.355 354.456C458.355 354.8 458.233 355.135 458.006 355.417C457.779 355.7 457.457 355.915 457.084 356.035L451.234 358.014C449.039 358.783 447.045 359.924 445.37 361.371C443.695 362.818 442.374 364.54 441.484 366.436L439.193 371.489C439.054 371.811 438.805 372.089 438.478 372.286C438.151 372.482 437.762 372.587 437.364 372.587C436.966 372.587 436.578 372.482 436.251 372.286C435.924 372.089 435.675 371.811 435.536 371.489L433.245 366.436C432.355 364.54 431.033 362.818 429.359 361.371C427.684 359.924 425.69 358.783 423.495 358.014L417.645 356.035C417.272 355.915 416.95 355.7 416.723 355.417C416.495 355.135 416.374 354.8 416.374 354.456C416.374 354.112 416.495 353.776 416.723 353.494C416.95 353.212 417.272 352.996 417.645 352.877L423.495 350.897C425.69 350.129 427.684 348.987 429.359 347.541C431.033 346.094 432.355 344.372 433.245 342.476Z" fill="#F8DC25"/>
<path d="M698.25 203.262L700.541 198.209C700.68 197.886 700.929 197.608 701.256 197.412C701.583 197.216 701.971 197.111 702.369 197.111C702.767 197.111 703.156 197.216 703.483 197.412C703.81 197.608 704.059 197.886 704.197 198.209L706.489 203.262C707.379 205.158 708.7 206.88 710.375 208.327C712.05 209.774 714.044 210.915 716.239 211.684L722.089 213.663C722.462 213.783 722.784 213.998 723.011 214.28C723.238 214.563 723.36 214.898 723.36 215.242C723.36 215.586 723.238 215.922 723.011 216.204C722.784 216.486 722.462 216.702 722.089 216.821L716.239 218.8C714.044 219.569 712.05 220.711 710.375 222.157C708.7 223.604 707.379 225.326 706.489 227.222L704.197 232.275C704.059 232.598 703.81 232.876 703.483 233.072C703.156 233.268 702.767 233.374 702.369 233.374C701.971 233.374 701.583 233.268 701.256 233.072C700.929 232.876 700.68 232.598 700.541 232.275L698.25 227.685C697.36 225.789 696.038 224.067 694.364 222.62C692.689 221.174 690.695 220.032 688.5 219.264L682.65 217.284C682.277 217.165 681.955 216.949 681.728 216.667C681.5 216.385 681.379 216.049 681.379 215.705C681.379 215.361 681.5 215.026 681.728 214.744C681.955 214.461 682.277 214.246 682.65 214.126L688.5 212.147C690.746 211.326 692.772 210.113 694.45 208.584C696.128 207.055 697.421 205.243 698.25 203.262Z" fill="#F8DC25"/>
<path d="M706.099 409.429C710.407 409.429 713.899 406.413 713.899 402.692C713.899 398.971 710.407 395.954 706.099 395.954C701.791 395.954 698.299 398.971 698.299 402.692C698.299 406.413 701.791 409.429 706.099 409.429Z" fill="#F8DC25"/>
<path d="M444.847 274.722C449.155 274.722 452.647 271.705 452.647 267.984C452.647 264.263 449.155 261.247 444.847 261.247C440.54 261.247 437.047 264.263 437.047 267.984C437.047 271.705 440.54 274.722 444.847 274.722Z" fill="#F8DC25"/>
<path d="M656.715 183.765C661.023 183.765 664.515 180.749 664.515 177.028C664.515 173.307 661.023 170.29 656.715 170.29C652.407 170.29 648.915 173.307 648.915 177.028C648.915 180.749 652.407 183.765 656.715 183.765Z" fill="#F8DC25"/>
<path d="M99.5625 387.625C98.1458 400.125 96.8958 412.375 95.8125 424.375C95.3542 429.5 94.8958 434.812 94.4375 440.312C93.9792 445.812 93.5625 451.25 93.1875 456.625C92.8125 462 92.5 467.208 92.25 472.25C92 477.25 91.875 481.812 91.875 485.938C88.75 486.271 85.7917 486.5 83 486.625C80.25 486.75 77.4583 486.812 74.625 486.812C73.1667 486.812 71.6458 486.792 70.0625 486.75C68.4792 486.708 66.8333 486.646 65.125 486.562L29.6875 413.75C29.7292 416.625 29.7708 419.854 29.8125 423.438C29.8958 427.021 29.9792 430.771 30.0625 434.688C30.1458 438.562 30.2292 442.521 30.3125 446.562C30.4375 450.604 30.5417 454.5 30.625 458.25C30.7917 467.083 31 476.146 31.25 485.438C28.7083 485.438 26.0833 485.479 23.375 485.562C21.0417 485.646 18.4375 485.75 15.5625 485.875C12.7292 486.042 9.89583 486.271 7.0625 486.562C7.35417 482.396 7.60417 477.688 7.8125 472.438C8.02083 467.146 8.1875 461.604 8.3125 455.812C8.47917 449.979 8.60417 444.062 8.6875 438.062C8.77083 432.062 8.8125 426.25 8.8125 420.625C8.8125 414.792 8.75 409.354 8.625 404.312C8.54167 399.271 8.4375 394.979 8.3125 391.438C11.6875 391.688 14.9167 391.875 18 392C21.0833 392.083 24.1667 392.125 27.25 392.125C30.375 392.125 33.5 392.083 36.625 392C39.7917 391.875 43.1042 391.688 46.5625 391.438C48.4375 396.729 50.5208 401.812 52.8125 406.688C55.1042 411.562 57.4583 416.396 59.875 421.188C62.3333 425.938 64.7917 430.729 67.25 435.562C69.7083 440.354 72.0833 445.312 74.375 450.438C74.375 447.688 74.3958 444.688 74.4375 441.438C74.5208 438.188 74.6042 434.833 74.6875 431.375C74.7708 427.917 74.8542 424.438 74.9375 420.938C75.0208 417.438 75.125 414.062 75.25 410.812C75.4583 403.229 75.7292 395.5 76.0625 387.625C78.3542 387.833 80.375 388 82.125 388.125C83.9167 388.208 85.6875 388.25 87.4375 388.25C89.1875 388.25 91 388.208 92.875 388.125C94.75 388 96.9792 387.833 99.5625 387.625ZM154.062 471.062C154.312 467.521 154.479 464.083 154.562 460.75C154.688 457.417 154.75 454.125 154.75 450.875C154.75 447.5 154.688 444.188 154.562 440.938C154.479 437.646 154.312 434.25 154.062 430.75C152.646 430.542 151.229 430.417 149.812 430.375C148.438 430.292 147.042 430.25 145.625 430.25C139.792 430.25 134.167 430.896 128.75 432.188C128.625 434.438 128.5 436.667 128.375 438.875C128.292 441.083 128.25 443.292 128.25 445.5C128.25 449.917 128.417 454.333 128.75 458.75C129.125 463.125 129.667 467.708 130.375 472.5C131.333 472.583 132.292 472.625 133.25 472.625C134.25 472.625 135.271 472.625 136.312 472.625C139.188 472.625 142.104 472.5 145.062 472.25C148.062 472 151.062 471.604 154.062 471.062ZM177.25 451.375C177.25 456.333 176.271 461 174.312 465.375C172.396 469.708 169.771 473.5 166.438 476.75C163.104 480 159.188 482.562 154.688 484.438C150.229 486.354 145.458 487.312 140.375 487.312C135.333 487.312 130.688 486.354 126.438 484.438C122.229 482.562 118.583 480 115.5 476.75C112.458 473.5 110.083 469.708 108.375 465.375C106.667 461 105.812 456.333 105.812 451.375C105.812 445.25 106.667 439.938 108.375 435.438C110.083 430.938 112.458 427.208 115.5 424.25C118.583 421.292 122.229 419.104 126.438 417.688C130.688 416.229 135.333 415.5 140.375 415.5C145.458 415.5 150.229 416.312 154.688 417.938C159.188 419.562 163.104 421.917 166.438 425C169.771 428.083 172.396 431.854 174.312 436.312C176.271 440.729 177.25 445.75 177.25 451.375ZM292.375 448.812C292.375 454.354 292.083 460 291.5 465.75C290.917 471.5 289.917 477.25 288.5 483H266.75C267.25 476.792 267.646 470.667 267.938 464.625C268.271 458.542 268.438 452.417 268.438 446.25C268.438 444.167 268.438 442.104 268.438 440.062C268.438 437.979 268.396 435.896 268.312 433.812C266.438 433.604 264.562 433.479 262.688 433.438C260.854 433.354 259 433.312 257.125 433.312C253.375 433.312 249.625 433.438 245.875 433.688V441.75C245.875 448.625 245.979 455.479 246.188 462.312C246.396 469.104 246.729 476 247.188 483H226.188C226.188 467.917 225.979 452.979 225.562 438.188C225.146 423.396 224.458 408.542 223.5 393.625L247.188 392.25C246.896 397.708 246.646 403.146 246.438 408.562C246.229 413.979 246.083 419.417 246 424.875C248.417 423.042 250.917 421.646 253.5 420.688C256.083 419.688 258.438 418.958 260.562 418.5C263.062 417.958 265.5 417.646 267.875 417.562C270.917 417.562 273.625 417.979 276 418.812C278.417 419.646 280.521 420.812 282.312 422.312C284.146 423.771 285.688 425.5 286.938 427.5C288.229 429.5 289.271 431.667 290.062 434C290.896 436.292 291.479 438.708 291.812 441.25C292.188 443.792 292.375 446.312 292.375 448.812ZM372.25 454.688L323.375 458.625C323.583 461.208 323.875 463.771 324.25 466.312C324.625 468.854 325.104 471.417 325.688 474C329.354 474.25 332.896 474.375 336.312 474.375C338.188 474.375 340 474.354 341.75 474.312C343.5 474.229 345.312 474.125 347.188 474C347.271 473.167 347.333 472.333 347.375 471.5C347.417 470.667 347.438 469.833 347.438 469C347.438 468.25 347.417 467.521 347.375 466.812C347.375 466.062 347.312 465.312 347.188 464.562L370.75 465.062C369.583 469.021 367.896 472.417 365.688 475.25C363.521 478.083 360.938 480.417 357.938 482.25C354.979 484.042 351.667 485.354 348 486.188C344.333 487.021 340.479 487.438 336.438 487.438C331.479 487.438 326.812 486.771 322.438 485.438C318.104 484.104 314.312 481.958 311.062 479C307.854 476 305.312 472.104 303.438 467.312C301.604 462.521 300.688 456.646 300.688 449.688C300.688 444.062 301.667 439.229 303.625 435.188C305.583 431.146 308.188 427.812 311.438 425.188C314.729 422.562 318.521 420.646 322.812 419.438C327.146 418.188 331.688 417.562 336.438 417.562C341.396 417.562 346.042 418.229 350.375 419.562C354.75 420.896 358.542 422.979 361.75 425.812C365 428.646 367.562 432.271 369.438 436.688C371.312 441.104 372.25 446.375 372.25 452.5V454.688ZM322.75 445.5H347.812C347.812 440.333 347.292 435.417 346.25 430.75C342.667 430 338.917 429.625 335 429.625C331.167 429.625 327.292 430 323.375 430.75C323.125 433.083 322.958 435.458 322.875 437.875C322.792 440.25 322.75 442.792 322.75 445.5ZM427.875 454.062C427.958 453.021 428.042 452 428.125 451C428.208 449.958 428.25 448.917 428.25 447.875C428.25 444.292 427.875 440.75 427.125 437.25C423.25 437.417 419.396 437.688 415.562 438.062C411.771 438.438 407.938 438.938 404.062 439.562V452C404.062 457.458 404.062 462.875 404.062 468.25C404.062 473.583 404.104 478.958 404.188 484.375L381.938 485.938C382.062 484.396 382.125 482.875 382.125 481.375C382.167 479.875 382.188 478.354 382.188 476.812C382.188 467.146 382 457.583 381.625 448.125C381.292 438.667 380.792 429.167 380.125 419.625L404.188 417.562C404.188 418.729 404.167 419.896 404.125 421.062C404.083 422.188 404.062 423.333 404.062 424.5C406.479 422.75 408.896 421.417 411.312 420.5C413.771 419.583 416 418.896 418 418.438C420.292 417.938 422.521 417.646 424.688 417.562C429.604 417.812 434 418.938 437.875 420.938C439.5 421.771 441.104 422.854 442.688 424.188C444.271 425.479 445.688 427.083 446.938 429C448.188 430.875 449.188 433.104 449.938 435.688C450.688 438.229 451.062 441.188 451.062 444.562C451.062 445.729 451 446.958 450.875 448.25C450.75 449.5 450.583 450.833 450.375 452.25L427.875 454.062ZM504.188 471.062C504.438 467.521 504.604 464.083 504.688 460.75C504.812 457.417 504.875 454.125 504.875 450.875C504.875 447.5 504.812 444.188 504.688 440.938C504.604 437.646 504.438 434.25 504.188 430.75C502.771 430.542 501.354 430.417 499.938 430.375C498.562 430.292 497.167 430.25 495.75 430.25C489.917 430.25 484.292 430.896 478.875 432.188C478.75 434.438 478.625 436.667 478.5 438.875C478.417 441.083 478.375 443.292 478.375 445.5C478.375 449.917 478.542 454.333 478.875 458.75C479.25 463.125 479.792 467.708 480.5 472.5C481.458 472.583 482.417 472.625 483.375 472.625C484.375 472.625 485.396 472.625 486.438 472.625C489.312 472.625 492.229 472.5 495.188 472.25C498.188 472 501.188 471.604 504.188 471.062ZM527.375 451.375C527.375 456.333 526.396 461 524.438 465.375C522.521 469.708 519.896 473.5 516.562 476.75C513.229 480 509.312 482.562 504.812 484.438C500.354 486.354 495.583 487.312 490.5 487.312C485.458 487.312 480.812 486.354 476.562 484.438C472.354 482.562 468.708 480 465.625 476.75C462.583 473.5 460.208 469.708 458.5 465.375C456.792 461 455.938 456.333 455.938 451.375C455.938 445.25 456.792 439.938 458.5 435.438C460.208 430.938 462.583 427.208 465.625 424.25C468.708 421.292 472.354 419.104 476.562 417.688C480.812 416.229 485.458 415.5 490.5 415.5C495.583 415.5 500.354 416.312 504.812 417.938C509.312 419.562 513.229 421.917 516.562 425C519.896 428.083 522.521 431.854 524.438 436.312C526.396 440.729 527.375 445.75 527.375 451.375ZM605.5 454.688L556.625 458.625C556.833 461.208 557.125 463.771 557.5 466.312C557.875 468.854 558.354 471.417 558.938 474C562.604 474.25 566.146 474.375 569.562 474.375C571.438 474.375 573.25 474.354 575 474.312C576.75 474.229 578.562 474.125 580.438 474C580.521 473.167 580.583 472.333 580.625 471.5C580.667 470.667 580.688 469.833 580.688 469C580.688 468.25 580.667 467.521 580.625 466.812C580.625 466.062 580.562 465.312 580.438 464.562L604 465.062C602.833 469.021 601.146 472.417 598.938 475.25C596.771 478.083 594.188 480.417 591.188 482.25C588.229 484.042 584.917 485.354 581.25 486.188C577.583 487.021 573.729 487.438 569.688 487.438C564.729 487.438 560.062 486.771 555.688 485.438C551.354 484.104 547.562 481.958 544.312 479C541.104 476 538.562 472.104 536.688 467.312C534.854 462.521 533.938 456.646 533.938 449.688C533.938 444.062 534.917 439.229 536.875 435.188C538.833 431.146 541.438 427.812 544.688 425.188C547.979 422.562 551.771 420.646 556.062 419.438C560.396 418.188 564.938 417.562 569.688 417.562C574.646 417.562 579.292 418.229 583.625 419.562C588 420.896 591.792 422.979 595 425.812C598.25 428.646 600.812 432.271 602.688 436.688C604.562 441.104 605.5 446.375 605.5 452.5V454.688ZM556 445.5H581.062C581.062 440.333 580.542 435.417 579.5 430.75C575.917 430 572.167 429.625 568.25 429.625C564.417 429.625 560.542 430 556.625 430.75C556.375 433.083 556.208 435.458 556.125 437.875C556.042 440.25 556 442.792 556 445.5ZM679.938 469.438C679.938 473.104 679 476.167 677.125 478.625C675.25 481.042 672.792 482.979 669.75 484.438C666.708 485.938 663.25 486.979 659.375 487.562C655.5 488.188 651.562 488.5 647.562 488.5C645.354 488.5 642.979 488.354 640.438 488.062C637.938 487.812 635.417 487.333 632.875 486.625C630.333 485.958 627.854 485.062 625.438 483.938C623.062 482.771 620.896 481.312 618.938 479.562C616.979 477.812 615.292 475.75 613.875 473.375C612.5 471 611.562 468.229 611.062 465.062L636.438 464.812L637.438 475.688H656.875L658.312 463.125C655.729 462.542 652.771 462.042 649.438 461.625C646.104 461.208 642.688 460.708 639.188 460.125C635.688 459.5 632.25 458.708 628.875 457.75C625.5 456.792 622.5 455.479 619.875 453.812C617.25 452.146 615.125 450.042 613.5 447.5C611.875 444.958 611.062 441.812 611.062 438.062C611.062 434.021 612.042 430.625 614 427.875C615.958 425.083 618.521 422.854 621.688 421.188C624.896 419.479 628.521 418.229 632.562 417.438C636.604 416.646 640.708 416.188 644.875 416.062C647.083 416.062 649.458 416.188 652 416.438C654.583 416.688 657.146 417.146 659.688 417.812C662.229 418.438 664.667 419.312 667 420.438C669.375 421.562 671.479 423 673.312 424.75C675.188 426.458 676.708 428.542 677.875 431C679.083 433.417 679.771 436.271 679.938 439.562L655.375 440.625V428.312H634.25V444.938C636.958 445.521 639.979 445.979 643.312 446.312C646.646 446.604 650 447 653.375 447.5C656.75 448 660.021 448.688 663.188 449.562C666.396 450.438 669.229 451.688 671.688 453.312C674.188 454.938 676.188 457.042 677.688 459.625C679.188 462.208 679.938 465.479 679.938 469.438ZM772.438 435.75C769.312 435.625 766.208 435.542 763.125 435.5C760.083 435.417 757 435.333 753.875 435.25C754.208 443.292 754.75 451.271 755.5 459.188C756.292 467.062 757.333 475 758.625 483L735.375 485.25C734.958 480.25 734.604 475.396 734.312 470.688C734.021 465.979 733.771 461.5 733.562 457.25C733.354 453 733.188 449.042 733.062 445.375C732.938 441.667 732.854 438.333 732.812 435.375L722.688 435.75V420.125C724.354 420.25 726 420.375 727.625 420.5C729.292 420.583 730.979 420.667 732.688 420.75C732.688 420.458 732.729 419.792 732.812 418.75C732.896 417.708 733.083 416.417 733.375 414.875C733.667 413.333 734.125 411.625 734.75 409.75C735.375 407.875 736.229 405.979 737.312 404.062C738.396 402.146 739.729 400.292 741.312 398.5C742.938 396.667 744.896 395.062 747.188 393.688C749.479 392.271 752.146 391.146 755.188 390.312C758.271 389.438 761.812 389 765.812 389C767.271 389 768.792 389.083 770.375 389.25C772 389.375 773.688 389.604 775.438 389.938V406.938C773.438 406.604 771.438 406.375 769.438 406.25C767.479 406.125 765.458 406.062 763.375 406.062C761.833 406.062 760.25 406.104 758.625 406.188C757 406.271 755.375 406.438 753.75 406.688C753.667 408.812 753.625 410.938 753.625 413.062C753.625 415.146 753.625 417.25 753.625 419.375V421C756.75 420.917 759.854 420.812 762.938 420.688C766.062 420.562 769.229 420.375 772.438 420.125V435.75ZM825.438 471.062C825.688 467.521 825.854 464.083 825.938 460.75C826.062 457.417 826.125 454.125 826.125 450.875C826.125 447.5 826.062 444.188 825.938 440.938C825.854 437.646 825.688 434.25 825.438 430.75C824.021 430.542 822.604 430.417 821.188 430.375C819.812 430.292 818.417 430.25 817 430.25C811.167 430.25 805.542 430.896 800.125 432.188C800 434.438 799.875 436.667 799.75 438.875C799.667 441.083 799.625 443.292 799.625 445.5C799.625 449.917 799.792 454.333 800.125 458.75C800.5 463.125 801.042 467.708 801.75 472.5C802.708 472.583 803.667 472.625 804.625 472.625C805.625 472.625 806.646 472.625 807.688 472.625C810.562 472.625 813.479 472.5 816.438 472.25C819.438 472 822.438 471.604 825.438 471.062ZM848.625 451.375C848.625 456.333 847.646 461 845.688 465.375C843.771 469.708 841.146 473.5 837.812 476.75C834.479 480 830.562 482.562 826.062 484.438C821.604 486.354 816.833 487.312 811.75 487.312C806.708 487.312 802.062 486.354 797.812 484.438C793.604 482.562 789.958 480 786.875 476.75C783.833 473.5 781.458 469.708 779.75 465.375C778.042 461 777.188 456.333 777.188 451.375C777.188 445.25 778.042 439.938 779.75 435.438C781.458 430.938 783.833 427.208 786.875 424.25C789.958 421.292 793.604 419.104 797.812 417.688C802.062 416.229 806.708 415.5 811.75 415.5C816.833 415.5 821.604 416.312 826.062 417.938C830.562 419.562 834.479 421.917 837.812 425C841.146 428.083 843.771 431.854 845.688 436.312C847.646 440.729 848.625 445.75 848.625 451.375ZM923.688 444.312C923.688 447.896 923.5 451.417 923.125 454.875C922.792 458.292 922.167 461.562 921.25 464.688C920.375 467.771 919.146 470.667 917.562 473.375C916.021 476.042 914.062 478.396 911.688 480.438C909.312 482.479 906.458 484.146 903.125 485.438C899.792 486.771 895.896 487.604 891.438 487.938C879.979 487.938 871.375 485.042 865.625 479.25C859.875 473.458 857 464.896 857 453.562C857 453.271 857 452.5 857 451.25C857 449.958 857.021 448.375 857.062 446.5C857.104 444.583 857.146 442.458 857.188 440.125C857.271 437.75 857.396 435.333 857.562 432.875C857.729 430.417 857.917 428 858.125 425.625C858.375 423.25 858.688 421.083 859.062 419.125H880.938C880.146 423.25 879.562 427.604 879.188 432.188C878.812 436.771 878.625 441.458 878.625 446.25C878.625 450.667 878.792 455.062 879.125 459.438C879.5 463.771 880.104 467.896 880.938 471.812C882.479 472.021 883.979 472.188 885.438 472.312C886.938 472.438 888.417 472.5 889.875 472.5C891.292 472.5 892.75 472.438 894.25 472.312C895.792 472.188 897.292 472.021 898.75 471.812C899.208 467.896 899.542 463.792 899.75 459.5C900 455.167 900.125 450.792 900.125 446.375C900.125 441.542 900 436.833 899.75 432.25C899.542 427.625 899.208 423.25 898.75 419.125H921.375C922.292 424 922.896 428.604 923.188 432.938C923.521 437.271 923.688 441.062 923.688 444.312ZM1001.88 451.375C1001.88 456.917 1001.58 462.562 1001 468.312C1000.42 474.062 999.417 479.812 998 485.562H976.25C976.792 479.354 977.208 473.229 977.5 467.188C977.792 461.104 977.938 454.979 977.938 448.812C977.938 446.729 977.938 444.667 977.938 442.625C977.938 440.542 977.896 438.458 977.812 436.375C975.938 436.167 974.083 436.042 972.25 436C970.417 435.917 968.562 435.875 966.688 435.875C963.146 435.875 959.5 436 955.75 436.25C955.625 439.667 955.521 442.833 955.438 445.75C955.396 448.667 955.375 451.562 955.375 454.438C955.375 456.562 955.396 458.729 955.438 460.938C955.479 463.104 955.542 465.438 955.625 467.938C955.75 470.438 955.896 473.146 956.062 476.062C956.229 478.938 956.438 482.104 956.688 485.562H935.688C935.688 480.562 935.667 476.146 935.625 472.312C935.583 468.479 935.521 464.958 935.438 461.75C935.354 458.5 935.229 455.417 935.062 452.5C934.938 449.542 934.771 446.458 934.562 443.25C934.354 440 934.125 436.479 933.875 432.688C933.625 428.854 933.333 424.458 933 419.5L956.688 418.062L956.188 426.938C958.562 425.271 961 423.979 963.5 423.062C966 422.146 968.292 421.458 970.375 421C972.792 420.5 975.146 420.208 977.438 420.125C980.479 420.125 983.188 420.542 985.562 421.375C987.979 422.208 990.083 423.375 991.875 424.875C993.708 426.333 995.25 428.062 996.5 430.062C997.75 432.062 998.771 434.229 999.562 436.562C1000.4 438.854 1000.98 441.271 1001.31 443.812C1001.69 446.354 1001.88 448.875 1001.88 451.375ZM1085.31 393.625C1084.35 408.542 1083.67 423.667 1083.25 439C1082.83 454.292 1082.62 469.5 1082.62 484.625H1061.81L1062.19 477.625C1060.19 479.542 1057.98 481.021 1055.56 482.062C1053.15 483.104 1050.85 483.854 1048.69 484.312C1046.15 484.854 1043.6 485.167 1041.06 485.25C1036.31 485.25 1032.02 484.396 1028.19 482.688C1024.4 480.979 1021.17 478.583 1018.5 475.5C1015.88 472.417 1013.85 468.708 1012.44 464.375C1011.02 460.042 1010.31 455.271 1010.31 450.062C1010.31 446.604 1010.73 443.396 1011.56 440.438C1012.4 437.479 1013.54 434.792 1015 432.375C1016.46 429.958 1018.17 427.833 1020.12 426C1022.08 424.167 1024.17 422.625 1026.38 421.375C1028.58 420.125 1030.88 419.188 1033.25 418.562C1035.62 417.896 1037.98 417.562 1040.31 417.562C1043.19 417.646 1046 418.021 1048.75 418.688C1049.92 418.979 1051.12 419.354 1052.38 419.812C1053.62 420.229 1054.85 420.75 1056.06 421.375C1057.31 422 1058.5 422.729 1059.62 423.562C1060.79 424.396 1061.85 425.375 1062.81 426.5C1062.69 420.708 1062.54 414.979 1062.38 409.312C1062.21 403.604 1062.02 397.917 1061.81 392.25L1085.31 393.625ZM1054.62 468.875C1055.79 468.875 1057.02 468.875 1058.31 468.875C1059.65 468.875 1061.02 468.833 1062.44 468.75C1062.65 464.458 1062.77 460.146 1062.81 455.812C1062.9 451.438 1062.94 447.042 1062.94 442.625V435C1059.81 434.667 1056.92 434.396 1054.25 434.188C1051.62 433.938 1048.81 433.812 1045.81 433.812C1044.23 433.812 1042.58 433.854 1040.88 433.938C1039.21 433.979 1037.35 434.062 1035.31 434.188C1034.77 437.938 1034.38 441.667 1034.12 445.375C1033.88 449.083 1033.75 452.833 1033.75 456.625C1033.75 458.5 1033.75 460.354 1033.75 462.188C1033.79 464.021 1033.92 465.875 1034.12 467.75C1036.21 467.958 1038.12 468.125 1039.88 468.25C1041.67 468.375 1043.38 468.5 1045 468.625C1046.67 468.708 1048.27 468.771 1049.81 468.812C1051.4 468.854 1053 468.875 1054.62 468.875Z" fill="#FDFDFD"/>
<defs>
<linearGradient id="paint0_linear_13_23" x1="356.001" y1="237.118" x2="356.001" y2="468.295" gradientUnits="userSpaceOnUse">
<stop offset="0.401042" stop-color="#BF2E1A"/>
<stop offset="1"/>
</linearGradient>
<linearGradient id="paint1_linear_13_23" x1="746.001" y1="56.0476" x2="746.001" y2="287.225" gradientUnits="userSpaceOnUse">
<stop offset="0.451063" stop-color="#BF2E1A"/>
<stop offset="1"/>
</linearGradient>
</defs>
</svg>
